<?xml version="1.0" standalone="no"?>
<!DOCTYPE svg PUBLIC "-//W3C//DTD SVG 20010904//EN"
 "http://www.w3.org/TR/2001/REC-SVG-20010904/DTD/svg10.dtd">
<svg version="1.0" xmlns="http://www.w3.org/2000/svg"
 width="500.000000pt" height="500.000000pt" viewBox="0 0 500.000000 500.000000"
 preserveAspectRatio="xMidYMid meet">

<g transform="translate(0.000000,500.000000) scale(0.100000,-0.100000)"
fill="#000000" stroke="none">
<path d="M3479 2733 c-51 -8 -132 -66 -164 -117 -25 -42 -30 -61 -33 -125 -3
-69 0 -81 27 -128 39 -66 82 -98 156 -118 60 -15 98 -14 168 7 39 12 45 26 28
71 -10 24 -12 25 -88 20 -74 -4 -80 -3 -125 25 -47 31 -68 70 -68 128 0 26 37
81 72 107 29 22 97 28 159 14 35 -8 36 -8 51 32 16 40 16 42 -5 55 -19 13
-131 39 -146 35 -3 -1 -18 -4 -32 -6z"/>
<path d="M1390 2480 l0 -240 135 0 135 0 0 45 0 45 -85 0 -85 0 0 50 0 50 58
2 c31 1 66 2 77 2 16 1 21 9 23 43 l3 42 -78 3 -78 3 -3 44 c-4 55 4 61 89 61
72 0 79 5 79 61 l0 29 -135 0 -135 0 0 -240z"/>
<path d="M3820 2480 l0 -240 45 0 45 0 0 240 0 240 -45 0 -45 0 0 -240z"/>
<path d="M2810 2585 c0 -48 -2 -55 -20 -55 -16 0 -20 -7 -20 -34 0 -25 5 -35
20 -39 17 -4 20 -14 21 -69 0 -34 5 -79 12 -98 18 -52 72 -73 131 -50 23 8 24
12 15 39 -6 17 -20 31 -33 35 -26 6 -36 31 -36 87 0 41 14 59 47 59 19 0 23 5
23 30 0 25 -5 31 -32 38 -31 8 -33 11 -36 60 l-3 52 -45 0 -44 0 0 -55z"/>
<path d="M2557 2520 c-32 -17 -38 -18 -43 -5 -4 10 -20 15 -50 15 l-44 0 0
-145 0 -145 44 0 43 0 7 53 c3 28 6 70 6 92 0 22 4 45 8 51 14 22 52 26 77 10
24 -16 25 -22 25 -111 l0 -95 50 0 50 0 0 100 c0 145 -18 180 -100 195 -25 4
-45 0 -73 -15z"/>
<path d="M1680 2520 c0 -5 28 -60 62 -122 35 -62 68 -122 73 -133 7 -13 22
-21 45 -23 l35 -2 70 132 c39 73 71 139 73 146 3 8 -12 12 -50 12 l-54 0 -33
-80 c-19 -44 -37 -80 -41 -80 -3 0 -23 36 -43 80 l-36 80 -50 0 c-28 0 -51 -4
-51 -10z"/>
<path d="M2134 2511 c-69 -42 -92 -126 -55 -200 24 -47 58 -70 114 -77 51 -7
129 22 146 54 9 17 7 22 -19 31 -23 7 -36 6 -57 -4 -16 -8 -37 -15 -48 -15
-32 0 -67 29 -63 53 3 21 7 22 106 19 l102 -2 0 25 c0 43 -36 101 -74 119 -46
22 -114 20 -152 -3z m124 -43 c7 -7 12 -20 12 -30 0 -14 -9 -18 -45 -19 -25
-1 -51 -2 -57 -3 -19 -2 -21 30 -3 48 19 19 76 21 93 4z"/>
<path d="M3049 2501 c-16 -16 -29 -37 -29 -46 0 -32 32 -77 64 -90 38 -16 60
-40 51 -55 -9 -14 -41 -12 -75 5 -28 14 -29 14 -44 -17 -15 -28 -15 -32 2 -44
45 -34 160 -27 199 12 27 27 31 78 8 111 -8 12 -38 29 -66 38 -36 12 -49 21
-47 33 3 13 15 17 52 17 41 0 50 4 59 23 15 32 -3 42 -81 42 -57 0 -67 -3 -93
-29z"/>
</g>
</svg>
