<svg xmlns="http://www.w3.org/2000/svg" width="40" height="24"><path fill="#2557D6" d="M38.333 24H1.667C.75 24 0 23.28 0 22.4V1.6C0 .72.75 0 1.667 0h36.666C39.25 0 40 .72 40 1.6v20.8c0 .88-.75 1.6-1.667 1.6z"/><path fill="#FFF" d="M6.26 12.32h2.313L7.6 9.28l-.957 3.04zm3.425 4.56h-1.97l-.958-2.56H2.853l-1.06 2.56h-1.37l4.52-10.24h1.838l4.122 10.24zm2.9-8.64c0-.32.232-.64.696-.64h3.737c.773 0 1.394.4 1.394 1.12 0 .48-.31.88-.774 1.04.464.16.929.48.929 1.12 0 .8-.774 1.28-1.625 1.28h-3.66V8.24h-.696zm1.858 1.92h2.47c.387 0 .62-.24.62-.56 0-.32-.31-.48-.62-.48H14.44v1.04zm0 1.76h2.43c.387 0 .697-.24.697-.56 0-.32-.233-.56-.62-.56h-2.507v1.12zm4.536 3.2l4.305-4.56-4.305-4.56h2.238l2.7 2.96 2.7-2.96h2.003l-4.072 4.4 4.304 4.72h-2.236l-2.7-3.04-2.7 3.04H19.98zm9.073-4.56V6.4h4.614v1.6h-2.93v1.76h2.852v1.6h-2.853v1.76h2.93v1.6h-4.614V10.56z"/></svg>
