<svg xmlns="http://www.w3.org/2000/svg" viewBox="0 0 1000 324.68"><path fill="#1434CB" d="M651.19,0l-97.73,224.66h-62.82L442.31,33.77a29.31,29.31,0,0,0-16.62-22.4C409.32,3.62,383,0,352.11,0H149.64l-1.3,8.66C193.92,17.66,235.18,31,273.09,46.91L341.93,224.66h64L529.75,0Zm81.95,0L683.32,156.12,667.94,73.44C662.75,46.58,642.45,23.52,614.76,0H548.16L478.29,224.66h60.26L652.84,0ZM743.55,0V224.66h57.61L881.8,0Z"/><path fill="#1434CB" d="M0,0H0Z"/><path fill="#1434CB" d="M924.84,0l-60.26,0-80.64,224.66H842.7c43.86-116.35,50-133.52,50-133.52,0,0,2,18.78,8.07,34.32L924.84,0ZM0,0H0Z"/><path fill="#1434CB" d="M0,0V224.66H112.12c40.25,0,72.84-9.33,87.13-35.52,9.23-16.85,9.72-37.13,4.79-56-9.67-36.95-37.18-56-68.73-56,0,0,27.5-18.85,22.76-53.92C153.94,1.35,129.67,0,100.93,0Z"/><path fill="#1434CB" d="M0,0V0Z"/><path fill="#1434CB" d="M71.37,92.27H92.43c18.9,0,22.09,9.12,23.33,15.07,2.19,10.57-3.06,22.79-25.35,22.79H71.37Zm0-65.08H89.32c10.74,0,22.09,1.83,22.09,16.85,0,10.57-5.21,19.7-23.33,19.7H71.37Z"/><rect fill="#F9A533" x="0" y="275.59" width="1000" height="49.09"/></svg>
